<?xml version="1.0" encoding="UTF-8"?>
<svg id="Layer_2" data-name="Layer 2" xmlns="http://www.w3.org/2000/svg" viewBox="0 0 1014.06 293.5">
  <defs>
    <style>
      .cls-1 {
        fill: #ff7a1a;
      }

      .cls-2 {
        fill: #fff;
      }
    </style>
  </defs>
  <g id="Layer_1" data-name="Layer 1">
    <g>
      <g>
        <path class="cls-2" d="M439.05,225.09l-45.8-56.35h-19.66v56.35h-33.57V57.24h70.98c11.67,0,22.06,2.32,31.17,6.95,9.11,4.64,16.19,11.15,21.22,19.54,5.04,8.39,7.55,18.02,7.55,28.89,0,13.43-3.64,24.86-10.91,34.29-7.28,9.43-17.3,15.83-30.09,19.18l49.64,58.99h-40.52ZM429.82,93.33c-5.2-4.87-12.43-7.31-21.7-7.31h-34.77v55.15h35.01c9.27,0,16.47-2.4,21.58-7.19,5.11-4.8,7.67-11.43,7.67-19.9,0-8.95-2.6-15.86-7.79-20.74Z"/>
        <path class="cls-2" d="M669.25,225.09h-36.21l-14.15-32.85h-82.73l-14.15,32.85h-35.25l73.37-167.85h35.73l73.37,167.85ZM547.92,163.47h59.23l-18.95-48.2c-5.28-13.43-8.63-22.3-10.07-26.62h-.72l-5.28,13.43-5.28,13.67-18.94,47.72Z"/>
        <path class="cls-2" d="M758.21,57.24c16.79,0,31.61,3.44,44.48,10.31,12.87,6.87,22.82,16.63,29.85,29.25,7.03,12.63,10.55,27.18,10.55,43.64s-3.52,31.58-10.55,44.36c-7.04,12.79-17.02,22.7-29.97,29.74-12.95,7.04-27.9,10.55-44.84,10.55h-65.7V57.24h66.18ZM758.45,195.36c10.23,0,19.19-2.2,26.86-6.6,7.67-4.4,13.63-10.63,17.86-18.7,4.23-8.07,6.35-17.46,6.35-28.17,0-16.62-4.68-29.93-14.03-39.92-9.35-9.99-21.94-14.99-37.77-14.99h-32.61v108.39h33.33Z"/>
        <path class="cls-2" d="M973.53,225.09l-45.8-56.35h-19.66v56.35h-33.57V57.24h70.98c11.67,0,22.06,2.32,31.17,6.95,9.11,4.64,16.19,11.15,21.22,19.54,5.04,8.39,7.55,18.02,7.55,28.89,0,13.43-3.64,24.86-10.91,34.29-7.28,9.43-17.3,15.83-30.09,19.18l49.64,58.99h-40.52ZM964.3,93.33c-5.2-4.87-12.43-7.31-21.7-7.31h-34.77v55.15h35.01c9.27,0,16.47-2.4,21.58-7.19,5.11-4.8,7.67-11.43,7.67-19.9,0-8.95-2.6-15.86-7.79-20.74Z"/>
      </g>
      <g>
        <polygon class="cls-1" points="155.47 116.47 155.47 116.48 147.51 163.21 146.88 166.92 140.03 168.69 140.03 168.71 140.02 168.71 27.52 197.91 37.54 139.1 71.23 130.34 140.03 112.46 155.47 116.47"/>
        <polygon class="cls-1" points="139.4 225.09 139.39 225.09 136.86 225.75 89.57 238.04 71.91 242.62 93.03 258.39 94.56 259.53 126.98 283.76 140.03 293.5 185.5 259.53 140.03 225.57 139.4 225.09"/>
        <polygon class="cls-1" points="226.92 21.74 226.91 21.73 173.87 8.46 140.03 0 52.88 22.63 0 36.37 9.18 90.22 62.06 76.48 140.03 56.23 164.64 62.62 217.61 76.38 208.44 130.23 199.81 180.9 196.51 183.37 185.5 191.6 196.58 199.88 206.87 207.57 230.97 225.57 249.81 211.49 252.15 197.81 252.5 195.72 261.32 143.96 263.07 133.65 263.07 133.64 270.49 90.11 279.87 34.98 226.92 21.74"/>
      </g>
    </g>
  </g>
</svg>